<svg width="905" height="164" viewBox="0 0 905 164" fill="none" xmlns="http://www.w3.org/2000/svg">
<path d="M551.711 43H6C2.68629 43 0 45.6863 0 49V156.92C0 160.817 3.18286 163.964 7.07981 163.919L561.593 157.596C566.167 157.544 569.766 153.674 569.487 149.108L563.689 54.2677C563.302 47.9365 558.054 43 551.711 43Z" fill="#060606"/>
<circle cx="469" cy="60" r="5" fill="#D3D3D3"/>
<circle cx="483" cy="60" r="5" fill="#D3D3D3"/>
<circle cx="497" cy="60" r="5" fill="#D3D3D3"/>
<path d="M735.894 4.18657L871.693 37.8393C881.337 40.2292 886.278 50.9437 881.835 59.8305C880.162 63.1756 876.453 64.9824 872.788 64.2375L756 40.5L893.573 78.9463C900.033 80.7516 904.5 86.6383 904.5 93.3458C904.5 100.154 898.276 105.264 891.598 103.937L756 77L865.668 104.417C870.565 105.641 874 110.041 874 115.089V117.971C874 124.226 868.323 128.945 862.174 127.803L747.5 106.5L817.313 137.872C822.418 140.166 824.752 146.12 822.566 151.272C820.836 155.35 816.257 157.406 812.06 155.991L740.398 131.821C736.907 130.643 733.116 130.706 729.666 132L678.5 151.188C673.532 153.051 668.298 154.111 662.997 154.329L643.998 155.11C637.68 155.369 631.353 155.023 625.102 154.076L607.807 151.456C603.619 150.821 599.526 149.667 595.623 148.021L573.121 138.527C570.922 137.6 569.482 135.457 569.453 133.071L569 95L567.575 52.7388C567.531 51.4109 568.365 50.2118 569.625 49.7916L702.488 5.50396C713.274 1.90876 724.859 1.45189 735.894 4.18657Z" fill="#D9D9D9"/>
<path d="M883.5 76.5L878 101" stroke="#0A0A0A" stroke-linejoin="round"/>
<path d="M857.5 103L851.5 125.5" stroke="#0A0A0A" stroke-linejoin="round"/>
<path d="M810.5 135.5L803 152.5" stroke="#0A0A0A" stroke-linejoin="round"/>
<path d="M863 36L858 61" stroke="#0A0A0A" stroke-linejoin="round"/>
</svg>
